<svg width="32" height="24" viewBox="0 0 32 24" fill="none" xmlns="http://www.w3.org/2000/svg">
<path d="M0 15V0.249999H1.5V15H0ZM2.25 15V0.249999H4.5V15H2.25ZM5.25 15V0.249999H6V15H5.25ZM4.1 23.075C3.35 23.075 2.74167 22.825 2.275 22.325L2.625 21.75L2.65 21.675L2.725 21.7C2.725 21.7167 2.73333 21.75 2.75 21.8C2.75 21.8333 2.76667 21.875 2.8 21.925C2.81667 21.9583 2.85 21.9917 2.9 22.025C3.25 22.325 3.68333 22.475 4.2 22.475C4.53333 22.475 4.81667 22.3833 5.05 22.2C5.28333 22 5.4 21.7667 5.4 21.5C5.4 21.3167 5.35833 21.1583 5.275 21.025C5.20833 20.9083 5.08333 20.7917 4.9 20.675C4.71667 20.5583 4.43333 20.4167 4.05 20.25C3.48333 20.0333 3.075 19.7833 2.825 19.5C2.59167 19.2167 2.475 18.9 2.475 18.55C2.475 18.1167 2.63333 17.7667 2.95 17.5C3.26667 17.2333 3.69167 17.1 4.225 17.1C4.54167 17.1 4.84167 17.1667 5.125 17.3C5.39167 17.4333 5.63333 17.6083 5.85 17.825L5.425 18.4L5.375 18.35C5.375 18.3333 5.36667 18.3083 5.35 18.275C5.35 18.225 5.33333 18.1833 5.3 18.15C5.28333 18.1 5.25 18.0583 5.2 18.025C5.06667 17.8917 4.90833 17.7917 4.725 17.725C4.55833 17.675 4.35833 17.65 4.125 17.65C3.825 17.65 3.59167 17.7333 3.425 17.9C3.24167 18.0667 3.15 18.2667 3.15 18.5C3.15 18.6833 3.18333 18.8417 3.25 18.975C3.33333 19.1083 3.475 19.2333 3.675 19.35C3.875 19.4833 4.175 19.625 4.575 19.775C5.125 20.0083 5.50833 20.2417 5.725 20.475C5.925 20.725 6.025 21.0333 6.025 21.4C6.025 21.6833 5.95833 21.95 5.825 22.2C5.675 22.45 5.45833 22.6583 5.175 22.825C4.875 22.9917 4.51667 23.075 4.1 23.075ZM8.25195 15V0.249999H9.00195V15H8.25195ZM12.002 15V0.249999H13.502V15H12.002ZM14.252 15V0.249999H15.002V15H14.252ZM10.977 22.425H12.077V19.275H11.027V18.725H12.727V22.425H13.727V22.975H10.977V22.425ZM12.377 17.825C12.2436 17.825 12.127 17.7833 12.027 17.7C11.9436 17.6 11.902 17.4833 11.902 17.35C11.902 17.2167 11.9436 17.1083 12.027 17.025C12.1103 16.925 12.227 16.875 12.377 16.875C12.4936 16.875 12.602 16.925 12.702 17.025C12.802 17.125 12.852 17.2333 12.852 17.35C12.852 17.4833 12.802 17.6 12.702 17.7C12.602 17.7833 12.4936 17.825 12.377 17.825ZM16.5039 15V0.249999H19.5039V15H16.5039ZM20.2539 15V0.249999H22.5039V15H20.2539ZM23.2539 15V0.249999H24.0039V15H23.2539ZM18.6539 18.725H19.2789V19.15C19.3789 19 19.5039 18.875 19.6539 18.775C19.8039 18.675 19.9622 18.625 20.1289 18.625C20.3122 18.625 20.4789 18.6833 20.6289 18.8C20.7622 18.9167 20.8456 19.0667 20.8789 19.25C20.9622 19.0667 21.0956 18.9167 21.2789 18.8C21.4456 18.6833 21.6372 18.625 21.8539 18.625C22.1206 18.625 22.3289 18.725 22.4789 18.925C22.6122 19.125 22.6706 19.3917 22.6539 19.725V22.975H22.0539V19.975C22.0539 19.6083 22.0206 19.375 21.9539 19.275C21.8872 19.175 21.7872 19.125 21.6539 19.125C21.5372 19.125 21.4289 19.175 21.3289 19.275C21.2289 19.375 21.1456 19.5083 21.0789 19.675C21.0122 19.8417 20.9789 20.0083 20.9789 20.175V22.975H20.3539V20.025C20.3539 19.675 20.3206 19.4417 20.2539 19.325C20.1872 19.1917 20.0622 19.125 19.8789 19.125C19.7956 19.125 19.7039 19.1667 19.6039 19.25C19.5039 19.3333 19.4206 19.4583 19.3539 19.625C19.3039 19.775 19.2789 19.95 19.2789 20.15V22.975H18.6539V18.725ZM24.7559 15V0.249999H25.5059V15H24.7559ZM26.2559 15V0.249999H29.2559V15H26.2559ZM30.7559 15V0.249999H31.5059V15H30.7559ZM28.8809 23.075C28.1642 23.075 27.5642 22.85 27.0809 22.4L27.4559 21.775L27.5059 21.675L27.5809 21.725C27.5809 21.7417 27.5809 21.7667 27.5809 21.8C27.5975 21.85 27.6142 21.8917 27.6309 21.925C27.6642 21.975 27.6975 22.025 27.7309 22.075C27.8809 22.2083 28.0475 22.3167 28.2309 22.4C28.4142 22.4667 28.6392 22.5 28.9059 22.5C29.2392 22.5 29.5059 22.4417 29.7059 22.325C29.8892 22.2083 29.9809 22.0417 29.9809 21.825C29.9809 21.6417 29.9059 21.4917 29.7559 21.375C29.6059 21.2583 29.3225 21.1417 28.9059 21.025C27.8392 20.7083 27.3059 20.2667 27.3059 19.7C27.3059 19.3667 27.4475 19.1083 27.7309 18.925C27.9975 18.725 28.3809 18.625 28.8809 18.625C29.2642 18.625 29.5892 18.6833 29.8559 18.8C30.1225 18.9 30.3642 19.0667 30.5809 19.3L30.1809 19.75L30.1309 19.825L30.0809 19.775C30.0809 19.7083 30.0642 19.6583 30.0309 19.625C30.0142 19.575 29.9725 19.525 29.9059 19.475C29.7559 19.3583 29.5975 19.275 29.4309 19.225C29.2475 19.1583 29.0725 19.125 28.9059 19.125C28.6392 19.125 28.4142 19.175 28.2309 19.275C28.0642 19.3583 27.9809 19.4833 27.9809 19.65C27.9809 19.8167 28.0725 19.9583 28.2559 20.075C28.4225 20.2083 28.7309 20.3417 29.1809 20.475C29.7142 20.6417 30.0892 20.8167 30.3059 21C30.5392 21.1833 30.6559 21.4333 30.6559 21.75C30.6559 22.1333 30.5059 22.45 30.2059 22.7C29.9059 22.95 29.4642 23.075 28.8809 23.075Z" fill="white"/>
</svg>
